<mxfile host="app.diagrams.net" modified="2023-05-08T13:56:17.369Z" agent="Mozilla/5.0 (Macintosh; Intel Mac OS X 10_15_7) AppleWebKit/537.36 (KHTML, like Gecko) Chrome/112.0.0.0 Safari/537.36" etag="PfqPJZEBl1eqVEKX-jTI" version="21.1.5" type="device">
  <diagram name="페이지-1" id="iojJRM1trHjzFMqSN-qZ">
    <mxGraphModel dx="954" dy="540" grid="1" gridSize="10" guides="1" tooltips="1" connect="1" arrows="1" fold="1" page="1" pageScale="1" pageWidth="827" pageHeight="1169" math="0" shadow="0">
      <root>
        <mxCell id="0" />
        <mxCell id="1" parent="0" />
        <mxCell id="Zqt9gI-p0Dw3mVdGgpfU-241" value="&lt;b&gt;&amp;nbsp;sd&amp;nbsp;&lt;/b&gt;회원 가입" style="shape=umlFrame;whiteSpace=wrap;html=1;pointerEvents=0;recursiveResize=0;container=1;collapsible=0;width=110;height=30;" parent="1" vertex="1">
          <mxGeometry x="34" y="30" width="916" height="260" as="geometry" />
        </mxCell>
        <mxCell id="Zqt9gI-p0Dw3mVdGgpfU-240" value="guest" style="shape=umlActor;verticalLabelPosition=bottom;verticalAlign=top;html=1;" parent="Zqt9gI-p0Dw3mVdGgpfU-241" vertex="1">
          <mxGeometry x="30" y="60" width="20" height="50" as="geometry" />
        </mxCell>
        <mxCell id="Zqt9gI-p0Dw3mVdGgpfU-243" value=":JoinUI" style="html=1;align=center;verticalAlign=middle;dashed=0;whiteSpace=wrap;" parent="Zqt9gI-p0Dw3mVdGgpfU-241" vertex="1">
          <mxGeometry x="120" y="65" width="130" height="40" as="geometry" />
        </mxCell>
        <mxCell id="Zqt9gI-p0Dw3mVdGgpfU-245" value="" style="endArrow=none;html=1;endSize=12;startArrow=none;startSize=14;startFill=0;edgeStyle=orthogonalEdgeStyle;align=center;verticalAlign=bottom;endFill=0;rounded=0;" parent="Zqt9gI-p0Dw3mVdGgpfU-241" edge="1">
          <mxGeometry y="3" relative="1" as="geometry">
            <mxPoint x="50" y="84.62" as="sourcePoint" />
            <mxPoint x="120" y="85" as="targetPoint" />
            <Array as="points">
              <mxPoint x="100" y="85" />
              <mxPoint x="100" y="85" />
            </Array>
          </mxGeometry>
        </mxCell>
        <mxCell id="Zqt9gI-p0Dw3mVdGgpfU-246" value=":Join" style="html=1;align=center;verticalAlign=middle;dashed=0;whiteSpace=wrap;" parent="Zqt9gI-p0Dw3mVdGgpfU-241" vertex="1">
          <mxGeometry x="370" y="65" width="130" height="40" as="geometry" />
        </mxCell>
        <mxCell id="Zqt9gI-p0Dw3mVdGgpfU-247" value="" style="endArrow=none;html=1;endSize=12;startArrow=none;startSize=14;startFill=0;edgeStyle=orthogonalEdgeStyle;align=center;verticalAlign=bottom;endFill=0;rounded=0;exitX=1;exitY=0.5;exitDx=0;exitDy=0;entryX=0;entryY=0.5;entryDx=0;entryDy=0;" parent="Zqt9gI-p0Dw3mVdGgpfU-241" source="Zqt9gI-p0Dw3mVdGgpfU-243" target="Zqt9gI-p0Dw3mVdGgpfU-246" edge="1">
          <mxGeometry y="3" relative="1" as="geometry">
            <mxPoint x="330" y="110" as="sourcePoint" />
            <mxPoint x="490" y="110" as="targetPoint" />
          </mxGeometry>
        </mxCell>
        <mxCell id="Zqt9gI-p0Dw3mVdGgpfU-251" value="" style="html=1;verticalAlign=bottom;labelBackgroundColor=none;endArrow=block;endFill=1;rounded=0;" parent="Zqt9gI-p0Dw3mVdGgpfU-241" edge="1">
          <mxGeometry width="160" relative="1" as="geometry">
            <mxPoint x="263" y="70" as="sourcePoint" />
            <mxPoint x="363" y="70" as="targetPoint" />
          </mxGeometry>
        </mxCell>
        <mxCell id="Zqt9gI-p0Dw3mVdGgpfU-252" value="" style="html=1;verticalAlign=bottom;labelBackgroundColor=none;endArrow=block;endFill=1;rounded=0;" parent="Zqt9gI-p0Dw3mVdGgpfU-241" edge="1">
          <mxGeometry width="160" relative="1" as="geometry">
            <mxPoint x="356" y="100" as="sourcePoint" />
            <mxPoint x="256" y="100" as="targetPoint" />
            <Array as="points">
              <mxPoint x="356" y="100" />
              <mxPoint x="316" y="100" />
            </Array>
          </mxGeometry>
        </mxCell>
        <mxCell id="Zqt9gI-p0Dw3mVdGgpfU-255" value="1: startInterface()" style="text;html=1;align=center;" parent="Zqt9gI-p0Dw3mVdGgpfU-241" vertex="1">
          <mxGeometry x="236" y="100" width="154" height="25" as="geometry" />
        </mxCell>
        <mxCell id="Zqt9gI-p0Dw3mVdGgpfU-256" value=":Member" style="html=1;align=center;verticalAlign=middle;dashed=0;whiteSpace=wrap;" parent="Zqt9gI-p0Dw3mVdGgpfU-241" vertex="1">
          <mxGeometry x="606" y="65" width="130" height="40" as="geometry" />
        </mxCell>
        <mxCell id="Zqt9gI-p0Dw3mVdGgpfU-258" value="" style="endArrow=none;html=1;endSize=12;startArrow=none;startSize=14;startFill=0;edgeStyle=orthogonalEdgeStyle;align=center;verticalAlign=bottom;endFill=0;rounded=0;exitX=1;exitY=0.5;exitDx=0;exitDy=0;" parent="Zqt9gI-p0Dw3mVdGgpfU-241" edge="1">
          <mxGeometry y="3" relative="1" as="geometry">
            <mxPoint x="500" y="84.62" as="sourcePoint" />
            <mxPoint x="606" y="85" as="targetPoint" />
            <Array as="points">
              <mxPoint x="586" y="85" />
              <mxPoint x="586" y="85" />
            </Array>
          </mxGeometry>
        </mxCell>
        <mxCell id="Zqt9gI-p0Dw3mVdGgpfU-259" value="" style="html=1;verticalAlign=bottom;labelBackgroundColor=none;endArrow=block;endFill=1;rounded=0;" parent="Zqt9gI-p0Dw3mVdGgpfU-241" edge="1">
          <mxGeometry width="160" relative="1" as="geometry">
            <mxPoint x="503" y="70" as="sourcePoint" />
            <mxPoint x="603" y="70" as="targetPoint" />
          </mxGeometry>
        </mxCell>
        <mxCell id="Zqt9gI-p0Dw3mVdGgpfU-272" value="newMem:NormalMember" style="html=1;align=center;verticalAlign=middle;dashed=0;whiteSpace=wrap;" parent="Zqt9gI-p0Dw3mVdGgpfU-241" vertex="1">
          <mxGeometry x="440" y="165" width="146" height="40" as="geometry" />
        </mxCell>
        <mxCell id="Zqt9gI-p0Dw3mVdGgpfU-276" value="2: creatAddMemberInfo()" style="text;html=1;align=center;" parent="Zqt9gI-p0Dw3mVdGgpfU-241" vertex="1">
          <mxGeometry x="50" y="100" width="154" height="25" as="geometry" />
        </mxCell>
        <mxCell id="Zqt9gI-p0Dw3mVdGgpfU-277" value="" style="endArrow=none;html=1;rounded=0;exitX=0.5;exitY=0;exitDx=0;exitDy=0;entryX=0;entryY=1;entryDx=0;entryDy=0;" parent="Zqt9gI-p0Dw3mVdGgpfU-241" source="Zqt9gI-p0Dw3mVdGgpfU-272" target="Zqt9gI-p0Dw3mVdGgpfU-256" edge="1">
          <mxGeometry relative="1" as="geometry">
            <mxPoint x="600" y="116" as="sourcePoint" />
            <mxPoint x="595" y="105" as="targetPoint" />
          </mxGeometry>
        </mxCell>
        <mxCell id="Zqt9gI-p0Dw3mVdGgpfU-278" value="" style="html=1;verticalAlign=bottom;labelBackgroundColor=none;endArrow=block;endFill=1;rounded=0;" parent="Zqt9gI-p0Dw3mVdGgpfU-241" edge="1">
          <mxGeometry width="160" relative="1" as="geometry">
            <mxPoint x="616" y="117.5" as="sourcePoint" />
            <mxPoint x="546" y="157.5" as="targetPoint" />
          </mxGeometry>
        </mxCell>
        <mxCell id="Zqt9gI-p0Dw3mVdGgpfU-280" value="" style="html=1;verticalAlign=bottom;labelBackgroundColor=none;endArrow=block;endFill=1;rounded=0;" parent="Zqt9gI-p0Dw3mVdGgpfU-241" edge="1">
          <mxGeometry width="160" relative="1" as="geometry">
            <mxPoint x="56" y="90" as="sourcePoint" />
            <mxPoint x="112" y="90" as="targetPoint" />
          </mxGeometry>
        </mxCell>
        <mxCell id="ivMZdRKgllx1LOQFkdyF-3" value="2.1:&lt;br&gt;[NormalMember] addNewNormalMember()&lt;br&gt;[CompanyMember] addNewCompanyMember()" style="text;html=1;align=center;" vertex="1" parent="Zqt9gI-p0Dw3mVdGgpfU-241">
          <mxGeometry x="226" y="10" width="184" height="25" as="geometry" />
        </mxCell>
        <mxCell id="ivMZdRKgllx1LOQFkdyF-4" value="2.1.1:&lt;br&gt;[NormalMember] addNewNormalMember()&lt;br&gt;[CompanyMember] addNewCompanyMember()" style="text;html=1;align=center;" vertex="1" parent="Zqt9gI-p0Dw3mVdGgpfU-241">
          <mxGeometry x="512" y="7.5" width="184" height="30" as="geometry" />
        </mxCell>
        <mxCell id="ivMZdRKgllx1LOQFkdyF-5" value="2.1.1:&lt;br&gt;[NormalMember] NormalMember()" style="text;html=1;align=center;" vertex="1" parent="Zqt9gI-p0Dw3mVdGgpfU-241">
          <mxGeometry x="380" y="110" width="184" height="25" as="geometry" />
        </mxCell>
        <mxCell id="ivMZdRKgllx1LOQFkdyF-8" value="newMem:CompanyMember" style="html=1;align=center;verticalAlign=middle;dashed=0;whiteSpace=wrap;" vertex="1" parent="Zqt9gI-p0Dw3mVdGgpfU-241">
          <mxGeometry x="600" y="165" width="160" height="40" as="geometry" />
        </mxCell>
        <mxCell id="ivMZdRKgllx1LOQFkdyF-9" value="" style="endArrow=none;html=1;rounded=0;exitX=0.5;exitY=0;exitDx=0;exitDy=0;entryX=0.623;entryY=1.075;entryDx=0;entryDy=0;entryPerimeter=0;" edge="1" parent="Zqt9gI-p0Dw3mVdGgpfU-241" source="ivMZdRKgllx1LOQFkdyF-8" target="Zqt9gI-p0Dw3mVdGgpfU-256">
          <mxGeometry relative="1" as="geometry">
            <mxPoint x="744" y="116" as="sourcePoint" />
            <mxPoint x="750" y="105" as="targetPoint" />
          </mxGeometry>
        </mxCell>
        <mxCell id="ivMZdRKgllx1LOQFkdyF-12" value="" style="html=1;verticalAlign=bottom;labelBackgroundColor=none;endArrow=block;endFill=1;rounded=0;entryX=0.578;entryY=-0.075;entryDx=0;entryDy=0;entryPerimeter=0;exitX=0.75;exitY=1;exitDx=0;exitDy=0;" edge="1" parent="Zqt9gI-p0Dw3mVdGgpfU-241" source="Zqt9gI-p0Dw3mVdGgpfU-256" target="ivMZdRKgllx1LOQFkdyF-8">
          <mxGeometry width="160" relative="1" as="geometry">
            <mxPoint x="738" y="135" as="sourcePoint" />
            <mxPoint x="673.44" y="173.75" as="targetPoint" />
          </mxGeometry>
        </mxCell>
        <mxCell id="ivMZdRKgllx1LOQFkdyF-14" value="2.1.1:&lt;br&gt;[CompanyMember] CompanyMember()" style="text;html=1;align=center;" vertex="1" parent="Zqt9gI-p0Dw3mVdGgpfU-241">
          <mxGeometry x="736" y="117.5" width="144" height="25" as="geometry" />
        </mxCell>
        <mxCell id="Zqt9gI-p0Dw3mVdGgpfU-312" value="&lt;b&gt;sd&amp;nbsp;&lt;/b&gt;로그인" style="shape=umlFrame;whiteSpace=wrap;html=1;pointerEvents=0;recursiveResize=0;container=1;collapsible=0;width=110;height=30;" parent="1" vertex="1">
          <mxGeometry x="34" y="325" width="760" height="260" as="geometry" />
        </mxCell>
        <mxCell id="Zqt9gI-p0Dw3mVdGgpfU-313" value="member" style="shape=umlActor;verticalLabelPosition=bottom;verticalAlign=top;html=1;" parent="Zqt9gI-p0Dw3mVdGgpfU-312" vertex="1">
          <mxGeometry x="30" y="60" width="20" height="50" as="geometry" />
        </mxCell>
        <mxCell id="Zqt9gI-p0Dw3mVdGgpfU-314" value=":LogInUI" style="html=1;align=center;verticalAlign=middle;dashed=0;whiteSpace=wrap;" parent="Zqt9gI-p0Dw3mVdGgpfU-312" vertex="1">
          <mxGeometry x="120" y="65" width="130" height="40" as="geometry" />
        </mxCell>
        <mxCell id="Zqt9gI-p0Dw3mVdGgpfU-315" value="" style="endArrow=none;html=1;endSize=12;startArrow=none;startSize=14;startFill=0;edgeStyle=orthogonalEdgeStyle;align=center;verticalAlign=bottom;endFill=0;rounded=0;" parent="Zqt9gI-p0Dw3mVdGgpfU-312" edge="1">
          <mxGeometry y="3" relative="1" as="geometry">
            <mxPoint x="50" y="84.62" as="sourcePoint" />
            <mxPoint x="120" y="85" as="targetPoint" />
            <Array as="points">
              <mxPoint x="100" y="85" />
              <mxPoint x="100" y="85" />
            </Array>
          </mxGeometry>
        </mxCell>
        <mxCell id="Zqt9gI-p0Dw3mVdGgpfU-316" value=":LogIn" style="html=1;align=center;verticalAlign=middle;dashed=0;whiteSpace=wrap;" parent="Zqt9gI-p0Dw3mVdGgpfU-312" vertex="1">
          <mxGeometry x="370" y="65" width="130" height="40" as="geometry" />
        </mxCell>
        <mxCell id="Zqt9gI-p0Dw3mVdGgpfU-317" value="" style="endArrow=none;html=1;endSize=12;startArrow=none;startSize=14;startFill=0;edgeStyle=orthogonalEdgeStyle;align=center;verticalAlign=bottom;endFill=0;rounded=0;exitX=1;exitY=0.5;exitDx=0;exitDy=0;entryX=0;entryY=0.5;entryDx=0;entryDy=0;" parent="Zqt9gI-p0Dw3mVdGgpfU-312" source="Zqt9gI-p0Dw3mVdGgpfU-314" target="Zqt9gI-p0Dw3mVdGgpfU-316" edge="1">
          <mxGeometry y="3" relative="1" as="geometry">
            <mxPoint x="330" y="110" as="sourcePoint" />
            <mxPoint x="490" y="110" as="targetPoint" />
          </mxGeometry>
        </mxCell>
        <mxCell id="Zqt9gI-p0Dw3mVdGgpfU-318" value="" style="html=1;verticalAlign=bottom;labelBackgroundColor=none;endArrow=block;endFill=1;rounded=0;" parent="Zqt9gI-p0Dw3mVdGgpfU-312" edge="1">
          <mxGeometry width="160" relative="1" as="geometry">
            <mxPoint x="263" y="70" as="sourcePoint" />
            <mxPoint x="363" y="70" as="targetPoint" />
          </mxGeometry>
        </mxCell>
        <mxCell id="Zqt9gI-p0Dw3mVdGgpfU-319" value="" style="html=1;verticalAlign=bottom;labelBackgroundColor=none;endArrow=block;endFill=1;rounded=0;" parent="Zqt9gI-p0Dw3mVdGgpfU-312" edge="1">
          <mxGeometry width="160" relative="1" as="geometry">
            <mxPoint x="356" y="100" as="sourcePoint" />
            <mxPoint x="256" y="100" as="targetPoint" />
            <Array as="points">
              <mxPoint x="356" y="100" />
              <mxPoint x="316" y="100" />
            </Array>
          </mxGeometry>
        </mxCell>
        <mxCell id="Zqt9gI-p0Dw3mVdGgpfU-321" value="1: startInterface()" style="text;html=1;align=center;" parent="Zqt9gI-p0Dw3mVdGgpfU-312" vertex="1">
          <mxGeometry x="236" y="100" width="154" height="25" as="geometry" />
        </mxCell>
        <mxCell id="Zqt9gI-p0Dw3mVdGgpfU-322" value=":Member" style="html=1;align=center;verticalAlign=middle;dashed=0;whiteSpace=wrap;" parent="Zqt9gI-p0Dw3mVdGgpfU-312" vertex="1">
          <mxGeometry x="606" y="65" width="130" height="40" as="geometry" />
        </mxCell>
        <mxCell id="Zqt9gI-p0Dw3mVdGgpfU-323" value="" style="endArrow=none;html=1;endSize=12;startArrow=none;startSize=14;startFill=0;edgeStyle=orthogonalEdgeStyle;align=center;verticalAlign=bottom;endFill=0;rounded=0;exitX=1;exitY=0.5;exitDx=0;exitDy=0;" parent="Zqt9gI-p0Dw3mVdGgpfU-312" edge="1">
          <mxGeometry y="3" relative="1" as="geometry">
            <mxPoint x="500" y="84.62" as="sourcePoint" />
            <mxPoint x="606" y="85" as="targetPoint" />
            <Array as="points">
              <mxPoint x="586" y="85" />
              <mxPoint x="586" y="85" />
            </Array>
          </mxGeometry>
        </mxCell>
        <mxCell id="Zqt9gI-p0Dw3mVdGgpfU-324" value="" style="html=1;verticalAlign=bottom;labelBackgroundColor=none;endArrow=block;endFill=1;rounded=0;" parent="Zqt9gI-p0Dw3mVdGgpfU-312" edge="1">
          <mxGeometry width="160" relative="1" as="geometry">
            <mxPoint x="503" y="70" as="sourcePoint" />
            <mxPoint x="603" y="70" as="targetPoint" />
          </mxGeometry>
        </mxCell>
        <mxCell id="Zqt9gI-p0Dw3mVdGgpfU-336" value="" style="html=1;verticalAlign=bottom;labelBackgroundColor=none;endArrow=block;endFill=1;rounded=0;" parent="Zqt9gI-p0Dw3mVdGgpfU-312" edge="1">
          <mxGeometry width="160" relative="1" as="geometry">
            <mxPoint x="64" y="95" as="sourcePoint" />
            <mxPoint x="120" y="95" as="targetPoint" />
            <Array as="points">
              <mxPoint x="110" y="95" />
            </Array>
          </mxGeometry>
        </mxCell>
        <mxCell id="Zqt9gI-p0Dw3mVdGgpfU-338" value="2.1.1: VerifyMember()" style="text;html=1;align=center;" parent="Zqt9gI-p0Dw3mVdGgpfU-312" vertex="1">
          <mxGeometry x="486" y="40" width="154" height="25" as="geometry" />
        </mxCell>
        <mxCell id="Zqt9gI-p0Dw3mVdGgpfU-340" value="2.1: LogIn()" style="text;html=1;align=center;" parent="Zqt9gI-p0Dw3mVdGgpfU-312" vertex="1">
          <mxGeometry x="236" y="42.5" width="154" height="25" as="geometry" />
        </mxCell>
        <mxCell id="Zqt9gI-p0Dw3mVdGgpfU-341" value="2: InsertInfo()" style="text;html=1;align=center;" parent="Zqt9gI-p0Dw3mVdGgpfU-312" vertex="1">
          <mxGeometry x="26" y="100" width="154" height="25" as="geometry" />
        </mxCell>
        <mxCell id="Zqt9gI-p0Dw3mVdGgpfU-342" value="&lt;b&gt;&amp;nbsp;sd&amp;nbsp;&lt;/b&gt;로그아웃" style="shape=umlFrame;whiteSpace=wrap;html=1;pointerEvents=0;recursiveResize=0;container=1;collapsible=0;width=110;height=30;" parent="1" vertex="1">
          <mxGeometry x="34" y="610" width="760" height="180" as="geometry" />
        </mxCell>
        <mxCell id="Zqt9gI-p0Dw3mVdGgpfU-343" value="member" style="shape=umlActor;verticalLabelPosition=bottom;verticalAlign=top;html=1;" parent="Zqt9gI-p0Dw3mVdGgpfU-342" vertex="1">
          <mxGeometry x="30" y="60" width="20" height="50" as="geometry" />
        </mxCell>
        <mxCell id="Zqt9gI-p0Dw3mVdGgpfU-344" value=":LogOutUI" style="html=1;align=center;verticalAlign=middle;dashed=0;whiteSpace=wrap;" parent="Zqt9gI-p0Dw3mVdGgpfU-342" vertex="1">
          <mxGeometry x="120" y="65" width="130" height="40" as="geometry" />
        </mxCell>
        <mxCell id="Zqt9gI-p0Dw3mVdGgpfU-345" value="" style="endArrow=none;html=1;endSize=12;startArrow=none;startSize=14;startFill=0;edgeStyle=orthogonalEdgeStyle;align=center;verticalAlign=bottom;endFill=0;rounded=0;" parent="Zqt9gI-p0Dw3mVdGgpfU-342" edge="1">
          <mxGeometry y="3" relative="1" as="geometry">
            <mxPoint x="50" y="84.62" as="sourcePoint" />
            <mxPoint x="120" y="85" as="targetPoint" />
            <Array as="points">
              <mxPoint x="100" y="85" />
              <mxPoint x="100" y="85" />
            </Array>
          </mxGeometry>
        </mxCell>
        <mxCell id="Zqt9gI-p0Dw3mVdGgpfU-346" value=":LogOut" style="html=1;align=center;verticalAlign=middle;dashed=0;whiteSpace=wrap;" parent="Zqt9gI-p0Dw3mVdGgpfU-342" vertex="1">
          <mxGeometry x="370" y="65" width="130" height="40" as="geometry" />
        </mxCell>
        <mxCell id="Zqt9gI-p0Dw3mVdGgpfU-347" value="" style="endArrow=none;html=1;endSize=12;startArrow=none;startSize=14;startFill=0;edgeStyle=orthogonalEdgeStyle;align=center;verticalAlign=bottom;endFill=0;rounded=0;exitX=1;exitY=0.5;exitDx=0;exitDy=0;entryX=0;entryY=0.5;entryDx=0;entryDy=0;" parent="Zqt9gI-p0Dw3mVdGgpfU-342" source="Zqt9gI-p0Dw3mVdGgpfU-344" target="Zqt9gI-p0Dw3mVdGgpfU-346" edge="1">
          <mxGeometry y="3" relative="1" as="geometry">
            <mxPoint x="330" y="110" as="sourcePoint" />
            <mxPoint x="490" y="110" as="targetPoint" />
          </mxGeometry>
        </mxCell>
        <mxCell id="Zqt9gI-p0Dw3mVdGgpfU-348" value="" style="html=1;verticalAlign=bottom;labelBackgroundColor=none;endArrow=block;endFill=1;rounded=0;" parent="Zqt9gI-p0Dw3mVdGgpfU-342" edge="1">
          <mxGeometry width="160" relative="1" as="geometry">
            <mxPoint x="263" y="70" as="sourcePoint" />
            <mxPoint x="363" y="70" as="targetPoint" />
          </mxGeometry>
        </mxCell>
        <mxCell id="Zqt9gI-p0Dw3mVdGgpfU-349" value="" style="html=1;verticalAlign=bottom;labelBackgroundColor=none;endArrow=block;endFill=1;rounded=0;" parent="Zqt9gI-p0Dw3mVdGgpfU-342" edge="1">
          <mxGeometry width="160" relative="1" as="geometry">
            <mxPoint x="356" y="100" as="sourcePoint" />
            <mxPoint x="256" y="100" as="targetPoint" />
            <Array as="points">
              <mxPoint x="356" y="100" />
              <mxPoint x="316" y="100" />
            </Array>
          </mxGeometry>
        </mxCell>
        <mxCell id="Zqt9gI-p0Dw3mVdGgpfU-350" value="2.1: LogOut()" style="text;html=1;align=center;" parent="Zqt9gI-p0Dw3mVdGgpfU-342" vertex="1">
          <mxGeometry x="236" y="40" width="154" height="25" as="geometry" />
        </mxCell>
        <mxCell id="Zqt9gI-p0Dw3mVdGgpfU-351" value="1: startInterface()" style="text;html=1;align=center;" parent="Zqt9gI-p0Dw3mVdGgpfU-342" vertex="1">
          <mxGeometry x="236" y="100" width="154" height="25" as="geometry" />
        </mxCell>
        <mxCell id="Zqt9gI-p0Dw3mVdGgpfU-355" value="2. LogOut()&amp;nbsp;" style="text;html=1;align=center;" parent="Zqt9gI-p0Dw3mVdGgpfU-342" vertex="1">
          <mxGeometry x="56" y="105" width="154" height="25" as="geometry" />
        </mxCell>
        <mxCell id="Zqt9gI-p0Dw3mVdGgpfU-362" value="" style="html=1;verticalAlign=bottom;labelBackgroundColor=none;endArrow=block;endFill=1;rounded=0;" parent="Zqt9gI-p0Dw3mVdGgpfU-342" edge="1">
          <mxGeometry width="160" relative="1" as="geometry">
            <mxPoint x="64" y="95" as="sourcePoint" />
            <mxPoint x="120" y="95" as="targetPoint" />
            <Array as="points">
              <mxPoint x="110" y="95" />
            </Array>
          </mxGeometry>
        </mxCell>
        <mxCell id="Zqt9gI-p0Dw3mVdGgpfU-368" value="&lt;b&gt;sd&amp;nbsp;&lt;/b&gt;회원 탈퇴" style="shape=umlFrame;whiteSpace=wrap;html=1;pointerEvents=0;recursiveResize=0;container=1;collapsible=0;width=110;height=30;" parent="1" vertex="1">
          <mxGeometry x="34" y="830" width="760" height="180" as="geometry" />
        </mxCell>
        <mxCell id="Zqt9gI-p0Dw3mVdGgpfU-369" value="member" style="shape=umlActor;verticalLabelPosition=bottom;verticalAlign=top;html=1;" parent="Zqt9gI-p0Dw3mVdGgpfU-368" vertex="1">
          <mxGeometry x="30" y="60" width="20" height="50" as="geometry" />
        </mxCell>
        <mxCell id="Zqt9gI-p0Dw3mVdGgpfU-370" value=":DeleteMemberUI" style="html=1;align=center;verticalAlign=middle;dashed=0;whiteSpace=wrap;" parent="Zqt9gI-p0Dw3mVdGgpfU-368" vertex="1">
          <mxGeometry x="120" y="65" width="130" height="40" as="geometry" />
        </mxCell>
        <mxCell id="Zqt9gI-p0Dw3mVdGgpfU-371" value="" style="endArrow=none;html=1;endSize=12;startArrow=none;startSize=14;startFill=0;edgeStyle=orthogonalEdgeStyle;align=center;verticalAlign=bottom;endFill=0;rounded=0;" parent="Zqt9gI-p0Dw3mVdGgpfU-368" edge="1">
          <mxGeometry y="3" relative="1" as="geometry">
            <mxPoint x="50" y="84.62" as="sourcePoint" />
            <mxPoint x="120" y="85" as="targetPoint" />
            <Array as="points">
              <mxPoint x="100" y="85" />
              <mxPoint x="100" y="85" />
            </Array>
          </mxGeometry>
        </mxCell>
        <mxCell id="Zqt9gI-p0Dw3mVdGgpfU-372" value=":DeleteMember" style="html=1;align=center;verticalAlign=middle;dashed=0;whiteSpace=wrap;" parent="Zqt9gI-p0Dw3mVdGgpfU-368" vertex="1">
          <mxGeometry x="370" y="65" width="130" height="40" as="geometry" />
        </mxCell>
        <mxCell id="Zqt9gI-p0Dw3mVdGgpfU-373" value="" style="endArrow=none;html=1;endSize=12;startArrow=none;startSize=14;startFill=0;edgeStyle=orthogonalEdgeStyle;align=center;verticalAlign=bottom;endFill=0;rounded=0;exitX=1;exitY=0.5;exitDx=0;exitDy=0;entryX=0;entryY=0.5;entryDx=0;entryDy=0;" parent="Zqt9gI-p0Dw3mVdGgpfU-368" source="Zqt9gI-p0Dw3mVdGgpfU-370" target="Zqt9gI-p0Dw3mVdGgpfU-372" edge="1">
          <mxGeometry y="3" relative="1" as="geometry">
            <mxPoint x="330" y="110" as="sourcePoint" />
            <mxPoint x="490" y="110" as="targetPoint" />
          </mxGeometry>
        </mxCell>
        <mxCell id="Zqt9gI-p0Dw3mVdGgpfU-374" value="" style="html=1;verticalAlign=bottom;labelBackgroundColor=none;endArrow=block;endFill=1;rounded=0;" parent="Zqt9gI-p0Dw3mVdGgpfU-368" edge="1">
          <mxGeometry width="160" relative="1" as="geometry">
            <mxPoint x="263" y="70" as="sourcePoint" />
            <mxPoint x="363" y="70" as="targetPoint" />
          </mxGeometry>
        </mxCell>
        <mxCell id="Zqt9gI-p0Dw3mVdGgpfU-375" value="" style="html=1;verticalAlign=bottom;labelBackgroundColor=none;endArrow=block;endFill=1;rounded=0;" parent="Zqt9gI-p0Dw3mVdGgpfU-368" edge="1">
          <mxGeometry width="160" relative="1" as="geometry">
            <mxPoint x="356" y="100" as="sourcePoint" />
            <mxPoint x="256" y="100" as="targetPoint" />
            <Array as="points">
              <mxPoint x="356" y="100" />
              <mxPoint x="316" y="100" />
            </Array>
          </mxGeometry>
        </mxCell>
        <mxCell id="Zqt9gI-p0Dw3mVdGgpfU-376" value="2.1: DeleteMember()" style="text;html=1;align=center;" parent="Zqt9gI-p0Dw3mVdGgpfU-368" vertex="1">
          <mxGeometry x="236" y="40" width="154" height="25" as="geometry" />
        </mxCell>
        <mxCell id="Zqt9gI-p0Dw3mVdGgpfU-377" value="1: startInterface()" style="text;html=1;align=center;" parent="Zqt9gI-p0Dw3mVdGgpfU-368" vertex="1">
          <mxGeometry x="236" y="100" width="154" height="25" as="geometry" />
        </mxCell>
        <mxCell id="Zqt9gI-p0Dw3mVdGgpfU-378" value="DeleteMem:Member" style="html=1;align=center;verticalAlign=middle;dashed=0;whiteSpace=wrap;" parent="Zqt9gI-p0Dw3mVdGgpfU-368" vertex="1">
          <mxGeometry x="605" y="65" width="130" height="40" as="geometry" />
        </mxCell>
        <mxCell id="Zqt9gI-p0Dw3mVdGgpfU-379" value="" style="endArrow=none;html=1;endSize=12;startArrow=none;startSize=14;startFill=0;edgeStyle=orthogonalEdgeStyle;align=center;verticalAlign=bottom;endFill=0;rounded=0;exitX=1;exitY=0.5;exitDx=0;exitDy=0;" parent="Zqt9gI-p0Dw3mVdGgpfU-368" edge="1">
          <mxGeometry y="3" relative="1" as="geometry">
            <mxPoint x="500" y="84.62" as="sourcePoint" />
            <mxPoint x="606" y="85" as="targetPoint" />
            <Array as="points">
              <mxPoint x="586" y="85" />
              <mxPoint x="586" y="85" />
            </Array>
          </mxGeometry>
        </mxCell>
        <mxCell id="Zqt9gI-p0Dw3mVdGgpfU-380" value="" style="html=1;verticalAlign=bottom;labelBackgroundColor=none;endArrow=block;endFill=1;rounded=0;" parent="Zqt9gI-p0Dw3mVdGgpfU-368" edge="1">
          <mxGeometry width="160" relative="1" as="geometry">
            <mxPoint x="503" y="70" as="sourcePoint" />
            <mxPoint x="603" y="70" as="targetPoint" />
          </mxGeometry>
        </mxCell>
        <mxCell id="Zqt9gI-p0Dw3mVdGgpfU-381" value="2:&amp;nbsp; Withdrawal()" style="text;html=1;align=center;" parent="Zqt9gI-p0Dw3mVdGgpfU-368" vertex="1">
          <mxGeometry x="36" y="100" width="154" height="25" as="geometry" />
        </mxCell>
        <mxCell id="Zqt9gI-p0Dw3mVdGgpfU-382" value="" style="html=1;verticalAlign=bottom;labelBackgroundColor=none;endArrow=block;endFill=1;rounded=0;" parent="Zqt9gI-p0Dw3mVdGgpfU-368" edge="1">
          <mxGeometry width="160" relative="1" as="geometry">
            <mxPoint x="64" y="95" as="sourcePoint" />
            <mxPoint x="120" y="95" as="targetPoint" />
            <Array as="points">
              <mxPoint x="110" y="95" />
            </Array>
          </mxGeometry>
        </mxCell>
        <mxCell id="Zqt9gI-p0Dw3mVdGgpfU-384" value="2.1.1 : DeleteMember()" style="text;html=1;align=center;" parent="Zqt9gI-p0Dw3mVdGgpfU-368" vertex="1">
          <mxGeometry x="476" y="35" width="154" height="25" as="geometry" />
        </mxCell>
      </root>
    </mxGraphModel>
  </diagram>
</mxfile>
